<svg xmlns="http://www.w3.org/2000/svg" xmlns:xlink="http://www.w3.org/1999/xlink" width="30" height="30" viewBox="0 0 30 30">
    <defs>
        <path id="7k8e6kt80a" d="M0.046 0.041L15.04 0.041 15.04 20.958 0.046 20.958z"/>
    </defs>
    <g fill="none" fill-rule="evenodd">
        <g>
            <g>
                <g>
                    <g>
                        <g>
                            <path fill="#684B27" d="M.125 16.019s9.476-5.931 20.674-.92l-1.202 2.292-2.95 2.793s-6.384 2.307-6.613 2.214c-.228-.093-4.287-.894-4.287-.894L.125 16.019z" transform="translate(-172 -346) translate(0 334) translate(159 12) translate(13) translate(5 3)"/>
                            <path fill="#221E1F" d="M16.434 11.623c0 3.129-1.32 5.946-3.449 7.35-.853.565-1.772.85-2.728.85-1.503 0-2.956-.733-4.088-2.065l-.002-.003c-1.326-1.561-2.09-3.796-2.09-6.132 0-.771.077-1.573.228-2.388.378-2.053 1.214-4.053 2.293-5.487.756-1.006 1.978-2.203 3.506-2.203 1.578 0 3.23 1.292 4.53 3.547 1.143 1.983 1.8 4.363 1.8 6.531" transform="translate(-172 -346) translate(0 334) translate(159 12) translate(13) translate(5 3)"/>
                            <g transform="translate(-172 -346) translate(0 334) translate(159 12) translate(13) translate(5 3) translate(2.714 .185)">
                                <mask id="3htln041sb" fill="#fff">
                                    <use xlink:href="#7k8e6kt80a"/>
                                </mask>
                                <path fill="#221E1F" d="M4.437 16.69l.024.029c.878 1.034 1.972 1.602 3.082 1.602.694 0 1.368-.212 2.003-.632 1.763-1.165 2.857-3.56 2.857-6.251 0-1.941-.592-4.082-1.625-5.872C9.751 3.784 8.453 2.678 7.39 2.678c-1.036 0-1.981 1.05-2.452 1.678-.96 1.277-1.708 3.076-2.05 4.933-.136.737-.205 1.46-.205 2.149 0 2.013.639 3.925 1.754 5.253m3.106 4.267c-1.88 0-3.674-.882-5.055-2.49l-.04-.044C.923 16.626.047 14.08.047 11.438c0-.85.083-1.734.249-2.627.413-2.244 1.337-4.447 2.535-6.04C4.173.983 5.75.04 7.39.04c2.064 0 4.131 1.534 5.672 4.207 1.257 2.179 1.978 4.8 1.978 7.19 0 3.566-1.549 6.804-4.04 8.452-1.075.709-2.238 1.068-3.457 1.068" mask="url(#3htln041sb)"/>
                            </g>
                            <path fill="#F8EFE0" d="M16.434 11.623c0 3.129-1.32 5.946-3.449 7.35-.853.565-1.772.85-2.728.85-1.503 0-2.956-.733-4.088-2.065l-.002-.003c-1.326-1.561-2.09-3.796-2.09-6.132 0-.771.077-1.573.228-2.388.378-2.053 1.214-4.053 2.293-5.487.756-1.006 1.978-2.203 3.506-2.203 1.578 0 3.23 1.292 4.53 3.547 1.143 1.983 1.8 4.363 1.8 6.531" transform="translate(-172 -346) translate(0 334) translate(159 12) translate(13) translate(5 3)"/>
                            <path fill="#FEFEFE" d="M8.617 5.336c-.153-.139-.349-.215-.555-.215-.23 0-.45.097-.605.266-.033.036-.828.913-1.399 2.535-.33.934-.526 1.937-.578 2.98-.069 1.288.079 2.642.438 4.022.094.36.42.613.793.613.07 0 .139-.009.207-.027.438-.113.702-.562.587-1-.706-2.715-.344-4.76.083-5.997.448-1.29 1.062-1.998 1.081-2.02.303-.334.279-.852-.052-1.157" transform="translate(-172 -346) translate(0 334) translate(159 12) translate(13) translate(5 3)"/>
                            <path fill="#FAE0BD" d="M5.475 16.78c.211.345.438.677.692.975l.002.003c1.132 1.332 2.585 2.066 4.088 2.066.956 0 1.875-.286 2.728-.85 2.129-1.406 3.449-4.222 3.449-7.351 0-1.478-.31-3.051-.867-4.533-.161 3.843-3.978 9.52-10.092 9.69" transform="translate(-172 -346) translate(0 334) translate(159 12) translate(13) translate(5 3)"/>
                            <path fill="#C3996B" d="M.125 17.336s-.73 7.054 9.376 7.562c0 0 9.832 1.203 11.288-8.124 0 0 .228-1.722-1.456-1.873 0 0-4.383 3.23-8.279 3.18 0 0-4.815-.45-7.321-1.307 0 0-3.62-3.014-3.608.562" transform="translate(-172 -346) translate(0 334) translate(159 12) translate(13) translate(5 3)"/>
                            <path stroke="#724728" stroke-width="1.131" d="M.125 17.336s-.73 7.054 9.376 7.562c0 0 9.832 1.203 11.288-8.124 0 0 .228-1.722-1.456-1.873 0 0-4.383 3.23-8.279 3.18 0 0-4.815-.45-7.321-1.307 0 0-3.62-3.014-3.608.562z" transform="translate(-172 -346) translate(0 334) translate(159 12) translate(13) translate(5 3)"/>
                            <path fill="#684B27" d="M.815 17.124s2.531 4.206 8.586 3.239l-8.586-3.24zM19.815 16.16s-.75 6.172-5.69 5.528l5.69-5.529zM5.397 21.916s4.568.643 8.316-1.841c0 0-3.032 5.465-8.316 1.841" transform="translate(-172 -346) translate(0 334) translate(159 12) translate(13) translate(5 3)"/>
                        </g>
                        <path fill="#D8D8D8" fill-opacity="0" d="M0 0H30V30H0z" transform="translate(-172 -346) translate(0 334) translate(159 12) translate(13)"/>
                    </g>
                </g>
            </g>
        </g>
    </g>
</svg>
