<svg xmlns="http://www.w3.org/2000/svg" xmlns:xlink="http://www.w3.org/1999/xlink" width="30" height="30" viewBox="0 0 30 30">
    <defs>
        <path id="68lmy8upma" d="M0 0.046L20.402 0.046 20.402 7.185 0 7.185z"/>
    </defs>
    <g fill="none" fill-rule="evenodd">
        <g>
            <g>
                <g>
                    <g>
                        <g>
                            <g transform="translate(-292 -346) translate(0 334) translate(279 12) translate(13) translate(5 3) translate(0 17.737)">
                                <mask id="wirvcbsd1b" fill="#fff">
                                    <use xlink:href="#68lmy8upma"/>
                                </mask>
                                <path fill="#231F20" d="M20.402 3.614c0 1.971-1.644 3.57-3.672 3.57H3.67c-2.027 0-3.67-1.599-3.67-3.57C0 1.644 1.643.046 3.67.046H16.73c2.028 0 3.672 1.598 3.672 3.568" mask="url(#wirvcbsd1b)"/>
                            </g>
                            <path fill="#231F20" d="M16.304 10.948c0 3.005-1.305 5.711-3.407 7.061-.844.543-1.752.817-2.696.817-1.485 0-2.92-.705-4.04-1.985v-.003c-1.312-1.5-2.065-3.646-2.065-5.89 0-.74.075-1.51.224-2.294.374-1.972 1.2-3.892 2.266-5.27.746-.967 1.954-2.118 3.464-2.118 1.559 0 3.191 1.242 4.476 3.408 1.129 1.905 1.778 4.191 1.778 6.274" transform="translate(-292 -346) translate(0 334) translate(279 12) translate(13) translate(5 3)"/>
                            <path fill="#231F20" d="M7.131 15.994l.024.028c.868.993 1.95 1.538 3.046 1.538.684 0 1.352-.204 1.978-.607 1.742-1.12 2.823-3.419 2.823-6.005 0-1.865-.584-3.921-1.605-5.64-1.014-1.712-2.297-2.774-3.348-2.774-1.024 0-1.957 1.009-2.422 1.61-.95 1.228-1.688 2.956-2.026 4.74-.134.708-.202 1.401-.202 2.064 0 1.934.631 3.77 1.732 5.046m3.07 4.1c-1.858 0-3.63-.848-4.995-2.392l-.039-.042c-1.508-1.728-2.374-4.174-2.374-6.712 0-.816.083-1.666.246-2.523.408-2.156 1.321-4.271 2.505-5.803C6.872.907 8.43 0 10.05 0c2.04 0 4.082 1.474 5.605 4.042 1.242 2.093 1.954 4.61 1.954 6.906 0 3.426-1.53 6.537-3.992 8.12-1.062.68-2.211 1.026-3.415 1.026" transform="translate(-292 -346) translate(0 334) translate(279 12) translate(13) translate(5 3)"/>
                            <path fill="#FFC10E" d="M16.304 10.948c0 3.005-1.305 5.711-3.407 7.061-.844.543-1.752.817-2.696.817-1.485 0-2.92-.705-4.04-1.985v-.003c-1.312-1.5-2.065-3.646-2.065-5.89 0-.74.075-1.51.224-2.294.374-1.972 1.2-3.892 2.266-5.27.746-.967 1.954-2.118 3.464-2.118 1.559 0 3.191 1.242 4.476 3.408 1.129 1.905 1.778 4.191 1.778 6.274" transform="translate(-292 -346) translate(0 334) translate(279 12) translate(13) translate(5 3)"/>
                            <path fill="#FFF" d="M8.58 4.909c-.15-.134-.344-.207-.547-.207-.228 0-.446.093-.598.256-.033.034-.819.876-1.383 2.435-.325.898-.519 1.86-.571 2.861-.068 1.239.078 2.539.433 3.865.093.346.415.589.784.589.069 0 .136-.008.204-.026.432-.108.693-.539.58-.96-.698-2.608-.34-4.572.082-5.762.442-1.24 1.05-1.919 1.068-1.94.3-.32.275-.818-.051-1.111M6.21 20.703c0-.272-.126-.617-.433-.617-.371 0-.519.37-.519 1.286 0 .886.085 1.442.524 1.442.18 0 .472-.19.472-.587v-.375H5.75v-.545h1.234v1.98h-.56v-.34h-.011c-.18.29-.44.414-.794.414-.938 0-1.124-.682-1.124-1.953 0-1.236.297-1.869 1.271-1.869.837 0 1.177.417 1.177 1.164H6.21zM8.682 22.814c.451 0 .525-.375.525-1.365 0-.982-.074-1.363-.525-1.363-.45 0-.524.38-.524 1.363 0 .99.074 1.365.524 1.365m0-3.275c1.145 0 1.287.795 1.287 1.91 0 1.119-.142 1.911-1.287 1.911-1.143 0-1.287-.792-1.287-1.91 0-1.116.144-1.911 1.287-1.911M11.625 22.814c.45 0 .525-.375.525-1.365 0-.982-.074-1.363-.525-1.363-.45 0-.524.38-.524 1.363 0 .99.074 1.365.524 1.365m0-3.275c1.144 0 1.288.795 1.288 1.91 0 1.119-.144 1.911-1.288 1.911-1.144 0-1.287-.792-1.287-1.91 0-1.116.143-1.911 1.287-1.911M14.16 22.742h.34c.529 0 .633-.324.633-1.322 0-.836-.067-1.262-.65-1.262h-.322v2.584zm-.762-3.13h1.249c1.059 0 1.25.705 1.25 1.785 0 1.304-.286 1.89-1.298 1.89h-1.201v-3.676z" transform="translate(-292 -346) translate(0 334) translate(279 12) translate(13) translate(5 3)"/>
                            <path fill="#EFA716" d="M5.476 15.902c.209.331.433.65.685.936l.001.003c1.119 1.28 2.554 1.985 4.04 1.985.943 0 1.851-.274 2.695-.817 2.102-1.35 3.407-4.056 3.407-7.06 0-1.42-.306-2.932-.856-4.355-.16 3.691-3.931 9.145-9.972 9.308" transform="translate(-292 -346) translate(0 334) translate(279 12) translate(13) translate(5 3)"/>
                        </g>
                        <path fill="#D8D8D8" fill-opacity="0" d="M0 0H30V30H0z" transform="translate(-292 -346) translate(0 334) translate(279 12) translate(13)"/>
                    </g>
                </g>
            </g>
        </g>
    </g>
</svg>
