<svg xmlns="http://www.w3.org/2000/svg" width="30" height="30" viewBox="0 0 30 30">
    <g fill="none" fill-rule="evenodd">
        <g>
            <g>
                <g>
                    <g>
                        <g>
                            <path fill="#FFF" fill-rule="nonzero" stroke="#222" stroke-width="1.51" d="M2.768 19.253L.22 16.705c-.293-.293-.293-.77 0-1.063L15.642.22c.293-.293.77-.293 1.063 0l2.575 2.575c-.101.072-.198.153-.288.244-.881.88-.881 2.31 0 3.19.88.881 2.31.881 3.19 0 .091-.09.172-.187.244-.288l2.522 2.522c.293.293.293.77 0 1.063L9.526 24.948c-.293.293-.77.293-1.063 0L5.915 22.4c.1-.072.197-.153.288-.244.88-.881.88-2.31 0-3.19-.881-.882-2.31-.882-3.19 0-.092.09-.173.186-.245.287z" transform="translate(-51 -346) translate(0 334) translate(38 12) translate(13) matrix(1 0 0 -1 3 28)"/>
                            <path fill="#FFEEC6" stroke="#000" stroke-width=".899" d="M2.768 19.253L.22 16.705c-.293-.293-.293-.77 0-1.063L15.642.22c.293-.293.77-.293 1.063 0l2.575 2.575c-.101.072-.198.153-.288.244-.881.88-.881 2.31 0 3.19.88.881 2.31.881 3.19 0 .091-.09.172-.187.244-.288l2.522 2.522c.293.293.293.77 0 1.063L9.526 24.948c-.293.293-.77.293-1.063 0L5.915 22.4c.1-.072.197-.153.288-.244.88-.881.88-2.31 0-3.19-.881-.882-2.31-.882-3.19 0-.092.09-.173.186-.245.287z" transform="translate(-51 -346) translate(0 334) translate(38 12) translate(13) matrix(1 0 0 -1 3 28)"/>
                            <path fill="#222" fill-rule="nonzero" d="M17.133 12.33l1.01 1.01-.757.757-1.01-1.01.757-.758zm-1.768-1.769l1.01 1.01-.758.758-1.01-1.01.758-.758zm-1.768-1.768l1.01 1.01-.758.758-1.01-1.01.758-.758zm-1.768-1.768l1.01 1.01-.758.758-1.01-1.01.758-.758z" transform="translate(-51 -346) translate(0 334) translate(38 12) translate(13) matrix(1 0 0 -1 3 28)"/>
                        </g>
                        <path fill="#D8D8D8" fill-opacity="0" d="M0 0H30V30H0z" transform="translate(-51 -346) translate(0 334) translate(38 12) translate(13)"/>
                    </g>
                </g>
            </g>
        </g>
    </g>
</svg>
