<?xml version="1.0" encoding="UTF-8"?>
<svg width="97px" height="76px" viewBox="0 0 97 76" version="1.1" xmlns="http://www.w3.org/2000/svg" xmlns:xlink="http://www.w3.org/1999/xlink">
    <title>Combined Shape</title>
    <g id="Symbols" stroke="none" stroke-width="1" fill="none" fill-rule="evenodd">
        <g id="하단/상세정보" transform="translate(-44.000000, -124.000000)" fill="#F5F7F8">
            <g id="관람객정보" transform="translate(0.000000, 51.000000)">
                <g id="Group" transform="translate(20.000000, 73.000000)">
                    <g id="성비" transform="translate(24.000000, 0.000000)">
                        <path d="M97,-7.10542736e-14 L97,76 L75.9053067,76 C77.4506035,76 78.7075986,74.760854 78.7075986,73.2350036 L78.7075986,73.2350036 L78.7075986,52.0723333 L85.7586329,52.0723333 L77.6268793,23.4942245 L79.2215992,23.4942245 L84.5724776,42.2919886 L84.6190846,42.4432203 C84.9979463,43.5314745 86.179804,44.1556023 87.3269938,43.8534746 C88.5345658,43.5376139 89.2429641,42.321145 88.9233611,41.1419315 L88.9233611,41.1419315 L83.2479375,20.327518 L83.1697233,20.0540447 C82.164439,16.7245551 79.6570864,15 75.8377617,15 L75.8377617,15 L68.1623485,15 L67.8601245,15.0037768 C64.165323,15.0969086 61.6808075,16.9113625 60.7472304,20.327518 L60.7472304,20.327518 L55.080044,41.1419315 L55.0429632,41.2958762 C54.8139345,42.4252224 55.5211992,43.5513469 56.6731165,43.8534746 C57.8708039,44.1693354 59.1096772,43.4728219 59.4342224,42.2919886 L59.4342224,42.2919886 L64.7818059,23.4942245 L66.3732309,23.4942245 L58.2398299,52.0723333 L65.2925117,52.0723333 L65.2925117,73.2350036 L65.2976289,73.4033143 C65.3859049,74.8509428 66.6052756,76 68.0980984,76 L68.0980984,76 L27.9328,76 C29.6816,76 31.0976,74.5889224 31.0976,72.8493907 L31.0976,72.8493907 L31.0976,24.2700558 L32.6064,24.2700558 L32.6064,42.0002056 L32.6120433,42.1607601 C32.6943425,43.3270432 33.6664348,44.2387965 34.8464,44.2387965 C36.0912,44.2387965 37.0976,43.2422727 37.0976,42.0002056 L37.0976,42.0002056 L37.0976,20.2472889 L37.0943011,19.999902 C36.9997835,16.488978 34.8764364,14.4849903 31.008,14.4849903 L31.008,14.4849903 L16.0992,14.4849903 L15.8316085,14.4882355 C12.0369562,14.5811754 10,16.6665437 10,20.2472889 L10,20.2472889 L10,42.0002056 L10.0052016,42.1541308 C10.084525,43.3235863 11.0610667,44.2387965 12.2448,44.2387965 C13.488,44.2387965 14.4976,43.2422727 14.4976,42.0002056 L14.4976,42.0002056 L14.4976,24.2700558 L16.0016,24.2700558 L16.0016,72.8493907 L16.0066176,73.0281262 C16.0998602,74.6845603 17.4808828,76 19.1632,76 L19.1632,76 L0,76 L0,-7.10542736e-14 L97,-7.10542736e-14 Z M24.7728,44.4875288 L24.7728,72.8493907 L24.777812,73.0281262 C24.8709517,74.6845603 26.2504828,76 27.9328,76 L27.9328,76 L19.1632,76 C20.9104,76 22.3248,74.5889224 22.3248,72.8493907 L22.3248,72.8493907 L22.3248,44.4875288 L24.7728,44.4875288 Z M73.0865404,52.0723333 L73.0865404,73.2350036 L73.0916649,73.4033143 C73.1800693,74.8509428 74.4013789,76 75.9053067,76 L75.9053067,76 L68.0980984,76 C69.6532798,76 70.9135698,74.760854 70.9135698,73.2350036 L70.9135698,73.2350036 L70.9135698,52.0723333 L73.0865404,52.0723333 Z M72.4944179,-7.10542736e-15 C68.9122807,-7.10542736e-15 66,2.91120922 66,6.50318862 C66,10.0856022 68.9122807,13 72.4944179,13 C76.0877193,13 79,10.0856022 79,6.50318862 C79,2.91120922 76.0877193,-7.10542736e-15 72.4944179,-7.10542736e-15 Z M23.3559307,-1.10134124e-13 C19.7693485,-1.10134124e-13 16.85904,2.90328994 16.85904,6.47275634 C16.85904,10.0546167 19.7693485,12.9563574 23.3559307,12.9563574 C26.9502861,12.9563574 29.85904,10.0546167 29.85904,6.47275634 C29.85904,2.90328994 26.9502861,-1.10134124e-13 23.3559307,-1.10134124e-13 Z" id="Combined-Shape"></path>
                    </g>
                </g>
            </g>
        </g>
    </g>
</svg>