<svg xmlns="http://www.w3.org/2000/svg" width="62" height="28" viewBox="0 0 62 28">
    <g fill="none" fill-rule="evenodd">
        <g fill="#FFF">
            <g>
                <g>
                    <g>
                        <path d="M4.419 2.955l-.83-2.4C3.438.122 2.972-.106 2.545.048c-.427.152-.65.627-.5 1.061l.875 2.528 1.053.606.446-1.288zM5.917 3.638l.876-2.528c.15-.435-.073-.91-.5-1.062-.425-.154-.893.075-1.041.507l-.833 2.4.446 1.288 1.052-.605z" transform="translate(-70 -1149) translate(20 1110) translate(50 38) translate(52.948 .99)"/>
                        <path d="M8.732 2.969c-.223-.399-.723-.54-1.115-.313l-1.7.982-.46 1.327.89.339 2.077-1.2c.393-.226.532-.735.308-1.135M5.238 6.658l1.781.678c.096.037.193.055.287.055.333 0 .644-.208.767-.541.16-.431-.055-.91-.478-1.07l-1.248-.476-1.11.638v.716zM3.6 6.658v1.315c0 .458.368.83.82.83.452 0 .817-.372.817-.83V6.658l-.818-.312-.819.312zM2.492 5.304l-1.248.476c-.423.16-.637.639-.48 1.07.125.334.437.54.768.54.094 0 .191-.017.286-.054L3.6 6.658v-.716l-1.11-.638zM2.92 3.638l-1.698-.981C.829 2.43.329 2.57.106 2.969c-.222.4-.084.91.308 1.135l2.078 1.2.89-.338-.462-1.328z" transform="translate(-70 -1149) translate(20 1110) translate(50 38) translate(52.948 .99)"/>
                    </g>
                    <path d="M26.436 28.483c2.884 0 5.511-1.238 7.372-3.195 1.247-1.305 2.17-2.946 2.647-4.768l3.22 6.155c.501.956 1.476 1.555 2.54 1.555s2.039-.6 2.54-1.555l7.868-15.032c.749-1.43.215-3.205-1.192-3.965-1.407-.76-3.155-.217-3.904 1.213l-5.074 10.053-.239.827-.234-.827-5.077-10.053c-.747-1.43-2.495-1.972-3.902-1.213-1.407.76-1.94 2.535-1.192 3.965l1.896 3.623h-5.85c-1.327 0-2.402 1.128-2.402 2.52 0 1.39 1.075 2.515 2.401 2.515h2.894c-.78 1.22-2.105 2.404-4.32 2.404-1.286-.003-2.43-.534-3.303-1.44-.864-.91-1.408-2.164-1.408-3.585-.005-2.465 1.658-4.459 3.731-4.918 1.531-.344 2.499-1.887 2.16-3.445-.2-.919-.81-1.637-1.591-2.002-1.133-.503-2.526 0-2.526 0-4.361 1.335-7.454 5.5-7.457 10.365 0 .629.054 1.245.154 1.846-.908 1.524-2.621 3.438-5.488 3.438-2.754-.007-5.023-2.302-5.024-5.179.001-2.558 1.789-4.653 4.119-5.095 0 0 .586-.116 1.529-.196.906-.077 2.214-1.154 2.214-2.775 0-1.594-1.27-2.887-2.838-2.887C4.77 6.837.012 11.754 0 17.785c.012 6.028 4.77 10.945 10.7 10.95 3.227-.002 6.107-1.461 8.063-3.762 0 0 2.749 3.51 7.673 3.51" transform="translate(-70 -1149) translate(20 1110) translate(50 38)"/>
                </g>
            </g>
        </g>
    </g>
</svg>
