<svg xmlns="http://www.w3.org/2000/svg" xmlns:xlink="http://www.w3.org/1999/xlink" width="75" height="75" viewBox="0 0 75 75">
    <defs>
        <ellipse id="0wj2dj7w4a" cx="37.5" cy="37.212" rx="37.5" ry="37.212"/>
        <ellipse id="7wtai48bec" cx="37.5" cy="37.212" rx="37.5" ry="37.212"/>
    </defs>
    <g fill="none" fill-rule="evenodd">
        <g>
            <g>
                <g>
                    <g>
                        <g transform="translate(-109 -948) translate(0 627) translate(20 286.681) translate(0 34.624) translate(89)">
                            <mask id="tv61fjcgyb" fill="#fff">
                                <use xlink:href="#0wj2dj7w4a"/>
                            </mask>
                            <use fill="#C5C5C5" xlink:href="#0wj2dj7w4a"/>
                            <path fill="#FFF" fill-rule="nonzero" d="M37.408 76.253c-7.348 0-14.696-.058-22.03.029-4.087.058-7.195-1.345-8.925-4.872-1.745-3.585-.581-6.824 2.082-9.57 4.47-4.612 10.288-7.171 16.396-9.195 4.73-1.562 4.976-2.241 1.975-5.855-4.455-5.364-5.91-11.349-3.888-17.927 2.128-6.91 8.726-10.987 16.105-10.149 7.838.897 13.059 6.246 13.671 13.995.444 5.58-1.44 10.409-5.19 14.659-2.327 2.646-1.852 3.629 1.44 5.002 4.73 1.966 9.399 4.12 13.87 6.535 1.867 1.012 3.383 2.775 4.7 4.452 2.127 2.69 2.342 5.71.566 8.69-1.7 2.847-4.333 4.206-7.808 4.206-7.655-.029-15.31-.014-22.964 0z" mask="url(#tv61fjcgyb)"/>
                            <ellipse cx="37.5" cy="37.212" stroke="#C5C5C5" stroke-width="1.5" rx="36.75" ry="36.462"/>
                        </g>
                    </g>
                </g>
            </g>
        </g>
    </g>
</svg>
